Coordinates
version=1
nRows=14
nColumns=32
inDegrees=yes

Units are S.I. units (second, meters, Newtons, ...)
If the header above contains a line with 'inDegrees', this indicates whether rotational values are in degrees (yes) or radians (no).

endheader
time	pelvis_tilt	pelvis_list	pelvis_rotation	pelvis_tx	pelvis_ty	pelvis_tz	hip_flexion_r	hip_adduction_r	hip_rotation_r	knee_angle_r	knee_adduction_r	med_cond_adduction_r	lat_cond_adduction_r	patella_r_constrained_knee_angle	ankle_angle_r	subtalar_angle_r	mtp_angle_r	hip_flexion_l	hip_adduction_l	hip_rotation_l	knee_angle_l	knee_adduction_l	med_cond_adduction_l	lat_cond_adduction_l	patella_l_constrained_knee_angle	ankle_angle_l	subtalar_angle_l	mtp_angle_l	lumbar_extension	lumbar_bending	lumbar_rotation
      1.32500000	     -4.41466712	     -3.05307250	     -3.29580225	      0.14807584	      0.46270976	     -1.19911403	     93.10146839	    -45.68428057	      5.54709301	   -118.79191865	     -9.81419910	      0.00000000	      0.00000000	     -2.07331011	     29.03819373	     19.12380565	      0.00000000	    101.70152429	    -49.37889228	     15.18526770	   -119.86691209	     -9.78362445	     -0.00000000	     -0.00000000	     -2.09207228	     28.77671559	     19.62225218	      0.00000000	    -35.14829091	      3.32772380	      0.42024360
      1.33000000	     -4.13010484	     -3.05381205	     -3.30528564	      0.14797781	      0.46216328	     -1.19899317	     92.99341182	    -45.71644513	      5.65568787	   -118.92471119	     -9.81694147	     -0.00000000	     -0.00000000	     -2.07562777	     29.05500954	     19.12917530	     -0.00000000	    101.46890029	    -49.39454972	     15.29750817	   -119.87616002	     -9.78476753	      0.00000000	      0.00000000	     -2.09223369	     28.82174510	     19.62315418	     -0.00000000	    -35.59274837	      3.48448840	      0.78573524
      1.33500000	     -3.84475511	     -3.07753777	     -3.31815982	      0.14790551	      0.46162459	     -1.19888758	     92.84228263	    -45.74762908	      5.72132064	   -119.05528290	     -9.81980760	      0.00000000	      0.00000000	     -2.07790668	     29.07984032	     19.12713897	     -0.00000000	    101.26722273	    -49.40704306	     15.45672189	   -119.88428053	     -9.78536882	      0.00000000	      0.00000000	     -2.09237542	     28.86778190	     19.62466320	      0.00000000	    -36.00165480	      3.33875217	      0.60087651
      1.34000000	     -3.58308930	     -2.97034116	     -3.33163700	      0.14776681	      0.46108035	     -1.19870813	     92.88046931	    -45.75600855	      6.00709079	   -119.17180646	     -9.82265177	      0.00000000	      0.00000000	     -2.07994040	     29.09177397	     19.12833844	      0.00000000	    100.90603845	    -49.42817705	     15.37583163	   -119.89121375	     -9.78544864	     -0.00000000	      0.00000000	     -2.09249642	     28.90718517	     19.62500496	     -0.00000000	    -36.39301674	      3.03646891	      0.34416255
      1.34500000	     -3.29786964	     -3.02339927	     -3.33909296	      0.14767730	      0.46063181	     -1.19866856	     92.66752811	    -45.79337920	      6.01135852	   -119.27388444	     -9.82536137	     -0.00000000	     -0.00000000	     -2.08172200	     29.11383672	     19.12748250	     -0.00000000	    100.71929952	    -49.43614778	     15.55832224	   -119.89705474	     -9.78576950	      0.00000000	     -0.00000000	     -2.09259837	     28.94840050	     19.62743085	      0.00000000	    -36.80722413	      3.04379117	      0.36599891
      1.35000000	     -3.01965564	     -2.95326569	     -3.34772625	      0.14755569	      0.46018937	     -1.19853925	     92.62604493	    -45.81343891	      6.23462627	   -119.36831684	     -9.82678207	     -0.00000000	     -0.00000000	     -2.08337015	     29.12971130	     19.13176659	      0.00000000	    100.37499965	    -49.45426020	     15.51976473	   -119.90208640	     -9.78807912	     -0.00000000	     -0.00000000	     -2.09268619	     28.98943253	     19.62690226	     -0.00000000	    -37.21347837	      2.93376174	      0.36637851
      1.35500000	     -2.72902088	     -2.95910691	     -3.35344705	      0.14750459	      0.45985087	     -1.19849507	     92.45359771	    -45.86426616	      6.31419877	   -119.44462173	     -9.82900850	      0.00000000	     -0.00000000	     -2.08470192	     29.14473062	     19.13175841	      0.00000000	    100.11134732	    -49.48126619	     15.59190031	   -119.90610691	     -9.78917944	     -0.00000000	     -0.00000000	     -2.09275636	     29.02827357	     19.62680399	      0.00000000	    -37.64626868	      3.12289575	      0.72942356
      1.36000000	     -2.45626809	     -2.93854992	     -3.36323398	      0.14734289	      0.45949564	     -1.19842268	     92.31835334	    -45.87369026	      6.42352406	   -119.51150885	     -9.83142667	      0.00000000	      0.00000000	     -2.08586932	     29.16256282	     19.13278367	     -0.00000000	     99.81566856	    -49.48482661	     15.63024263	   -119.91019867	     -9.79042614	      0.00000000	     -0.00000000	     -2.09282777	     29.06078485	     19.62689349	     -0.00000000	    -38.04922182	      3.04734532	      0.71407883
      1.36500000	     -2.16858586	     -2.87028852	     -3.36117781	      0.14722482	      0.45920770	     -1.19834145	     92.23057262	    -45.90270114	      6.62932195	   -119.57310545	     -9.83285542	      0.00000000	      0.00000000	     -2.08694439	     29.17542523	     19.14211741	     -0.00000000	     99.43010039	    -49.49898846	     15.56602735	   -119.91359351	     -9.79078097	      0.00000000	      0.00000000	     -2.09288702	     29.09552682	     19.62719745	     -0.00000000	    -38.46892221	      2.97079758	      0.74381508
      1.37000000	     -1.89778121	     -2.72697737	     -3.37946341	      0.14704889	      0.45890925	     -1.19817222	     92.25786226	    -45.89751762	      6.95131207	   -119.62833825	     -9.83430144	      0.00000000	      0.00000000	     -2.08790838	     29.18557086	     19.14929079	     -0.00000000	     98.96150143	    -49.52214424	     15.36893791	   -119.91640164	     -9.79085046	      0.00000000	      0.00000000	     -2.09293604	     29.13179965	     19.62542276	     -0.00000000	    -38.84901417	      2.80200997	      0.72819186
      1.37500000	     -1.64882457	     -2.55656395	     -3.36316698	      0.14696002	      0.45860840	     -1.19808767	     92.32902627	    -45.94833721	      7.33015249	   -119.66543080	     -9.83520148	     -0.00000000	     -0.00000000	     -2.08855577	     29.19555483	     19.15589890	     -0.00000000	     98.46941672	    -49.52547363	     15.09695727	   -119.91890716	     -9.79446603	      0.00000000	      0.00000000	     -2.09297977	     29.16671385	     19.62050944	      0.00000000	    -39.17425379	      2.28556354	      0.09809569
      1.38000000	     -1.30814036	     -2.94943202	     -3.35886986	      0.14695031	      0.45860238	     -1.19837372	     91.50729827	    -46.03282011	      6.68995642	   -119.68195802	     -9.83837828	     -0.00000000	     -0.00000000	     -2.08884422	     29.22164963	     19.15096272	     -0.00000000	     98.66532539	    -49.52355066	     15.84092056	   -119.92201141	     -9.79358227	      0.00000000	      0.00000000	     -2.09303394	     29.17548213	     19.62864981	     -0.00000000	    -39.68687477	      2.88211498	      0.57454261
      1.38500000	     -1.07254361	     -2.62675705	     -3.36467606	      0.14676639	      0.45833812	     -1.19812717	     91.79579165	    -46.02930774	      7.32053275	   -119.71758881	     -9.83885159	      0.00000000	      0.00000000	     -2.08946610	     29.22848422	     19.15660262	      0.00000000	     97.95618216	    -49.54612311	     15.29111625	   -119.92367172	     -9.79555127	     -0.00000000	     -0.00000000	     -2.09306292	     29.21285423	     19.62473464	     -0.00000000	    -39.99491676	      2.33351150	      0.14790219
      1.39000000	     -0.75974102	     -2.95765731	     -3.35315105	      0.14677145	      0.45830375	     -1.19839318	     91.08416514	    -46.11477400	      6.79508663	   -119.72968578	     -9.84121506	      0.00000000	      0.00000000	     -2.08967723	     29.24909185	     19.15506512	     -0.00000000	     98.09893709	    -49.54060355	     15.92367140	   -119.92617505	     -9.79538515	      0.00000000	      0.00000000	     -2.09310661	     29.22152352	     19.62905688	     -0.00000000	    -40.45346824	      2.84458199	      0.54669931
